<?xml version="1.0" standalone="no"?>
<!DOCTYPE svg PUBLIC "-//W3C//DTD SVG 20010904//EN"
 "http://www.w3.org/TR/2001/REC-SVG-20010904/DTD/svg10.dtd">
<svg version="1.0" xmlns="http://www.w3.org/2000/svg"
 width="980.000000pt" height="980.000000pt" viewBox="0 0 980.000000 980.000000"
 preserveAspectRatio="xMidYMid meet">
<metadata>
Created by potrace 1.14, written by Peter Selinger 2001-2017
</metadata>
<g transform="translate(0.000000,980.000000) scale(0.100000,-0.100000)"
fill="#000000" stroke="none">
<path d="M0 8678 c0 -47 48 -289 84 -419 108 -391 299 -745 551 -1017 37 -40
66 -74 64 -76 -2 -1 -25 -17 -50 -34 -26 -17 -67 -54 -92 -82 -103 -115 -82
-229 81 -438 62 -81 186 -192 374 -336 l77 -60 -45 -48 c-51 -55 -64 -83 -64
-142 0 -29 9 -56 29 -87 36 -57 185 -199 387 -372 l162 -138 -20 -52 c-29 -76
-22 -162 17 -219 53 -74 265 -201 391 -233 105 -26 418 -45 904 -55 261 -5
529 -14 595 -20 136 -12 395 -53 470 -75 46 -13 37 -14 -130 -8 -310 9 -595
-20 -861 -87 -331 -84 -564 -205 -764 -396 -194 -187 -309 -393 -367 -664 -14
-65 -18 -129 -18 -275 0 -184 1 -192 26 -245 32 -68 60 -97 113 -121 53 -24
148 -24 241 1 39 10 71 17 72 16 1 -1 11 -58 22 -126 52 -309 92 -397 195
-430 43 -14 111 -8 177 15 24 9 46 12 50 8 4 -5 29 -57 55 -117 84 -192 120
-215 340 -224 79 -3 144 -8 144 -11 0 -21 -53 -219 -76 -281 -57 -160 -121
-266 -223 -373 -152 -158 -271 -205 -424 -167 l-47 12 43 28 c54 34 84 71 97
121 19 71 -22 159 -91 194 -66 34 -180 8 -232 -54 -28 -33 -57 -116 -57 -161
0 -78 66 -211 128 -257 76 -56 113 -68 207 -67 75 1 105 6 180 33 216 79 403
203 612 404 267 257 459 568 598 968 25 73 81 278 126 458 95 386 144 559 211
741 88 236 194 454 272 555 50 66 170 205 177 205 14 0 71 -138 76 -185 5 -45
1 -60 -32 -124 l-38 -73 6 -252 c8 -299 24 -590 37 -665 9 -50 106 -271 119
-271 14 1 82 101 100 149 66 165 111 420 111 623 0 165 -12 267 -50 426 -17
68 -30 147 -30 175 0 52 48 209 63 208 4 0 53 -51 107 -112 104 -118 143 -182
245 -409 113 -249 177 -447 315 -972 128 -487 197 -683 324 -913 180 -328 460
-624 778 -824 148 -93 354 -159 455 -146 161 20 293 161 293 313 0 34 -6 77
-14 95 -18 45 -88 103 -154 127 -67 25 -91 18 -151 -42 -88 -88 -76 -186 31
-254 45 -29 43 -40 -9 -47 -104 -13 -266 48 -374 140 -185 158 -304 387 -317
607 l-5 98 39 -6 c21 -4 93 -7 159 -9 180 -3 205 18 276 229 21 64 41 119 43
121 1 2 32 -3 67 -12 117 -27 195 -16 255 37 72 64 104 181 104 383 0 69 3
125 8 125 4 0 36 -9 72 -20 189 -58 310 -25 376 100 28 52 26 338 -4 505 -91
522 -395 861 -923 1034 -229 75 -470 111 -949 141 -252 16 -258 19 -100 46
203 35 403 44 979 44 566 0 642 5 819 56 182 52 375 169 429 261 34 59 36 142
5 222 -12 30 -21 55 -19 56 35 21 225 157 289 207 152 121 254 253 279 363 13
58 4 83 -57 164 l-34 44 113 75 c149 101 341 292 411 410 111 186 95 298 -54
397 -70 46 -71 47 -55 71 8 13 23 36 32 52 10 15 48 69 86 121 254 352 474
795 538 1081 19 87 26 260 10 260 -4 0 -77 -74 -161 -165 -249 -271 -483 -456
-733 -582 -292 -146 -501 -196 -1022 -243 -266 -24 -393 -42 -557 -76 -761
-160 -1291 -592 -1572 -1279 -24 -60 -79 -220 -121 -355 -85 -269 -172 -508
-235 -646 -53 -115 -280 -516 -290 -512 -5 2 -33 35 -63 74 l-55 70 20 60 c24
72 19 144 -14 188 -21 30 -21 32 -10 185 26 347 89 571 237 831 89 158 160
244 336 409 90 84 185 176 212 205 55 59 97 137 97 179 0 29 -1 29 -42 23 -77
-12 -123 -44 -236 -160 -199 -205 -329 -388 -443 -621 -113 -233 -197 -522
-215 -745 l-7 -85 -23 123 c-74 404 -252 778 -517 1088 -53 62 -100 115 -106
118 -6 4 -31 39 -57 79 -86 134 -154 186 -243 187 -42 0 -43 -1 -37 -27 4 -16
19 -53 34 -83 22 -45 47 -71 137 -143 245 -196 376 -361 510 -640 107 -223
228 -614 242 -780 l6 -78 -43 -44 c-50 -51 -61 -103 -40 -189 16 -67 4 -108
-49 -168 l-38 -43 -80 122 c-190 286 -282 509 -501 1203 -138 438 -375 786
-709 1043 -374 286 -790 435 -1301 467 -289 18 -413 31 -548 55 -410 76 -768
239 -1079 490 -82 67 -164 147 -393 385 -74 77 -82 83 -82 58z"/>
</g>
</svg>
